<svg xmlns="http://www.w3.org/2000/svg" xmlns:xlink="http://www.w3.org/1999/xlink" width="1080" zoomAndPan="magnify" viewBox="0 0 810 1439.999935" height="1920" preserveAspectRatio="xMidYMid meet" version="1.0"><defs><g/></defs><rect x="-81" width="972" fill="#ffffff" y="-143.999994" height="1727.999922" fill-opacity="1"/><rect x="-81" width="972" fill="#ffffff" y="-143.999994" height="1727.999922" fill-opacity="1"/><g fill="#0075bf" fill-opacity="1"><g transform="translate(189.045002, 619.499926)"><g><path d="M 22.671875 -29.117188 L 32.445312 -29.117188 C 45.652344 -29.117188 60.628906 -32.445312 60.628906 -54.078125 L 60.628906 -56.15625 C 60.628906 -77.683594 45.652344 -81.117188 32.445312 -81.117188 L 5.824219 -81.117188 L 5.824219 0 L 22.671875 0 Z M 22.671875 -43.679688 L 22.671875 -66.558594 L 33.175781 -66.558594 C 37.75 -66.558594 43.574219 -64.789062 43.574219 -55.636719 L 43.574219 -54.597656 C 43.574219 -45.445312 37.75 -43.679688 33.175781 -43.679688 Z M 22.671875 -43.679688 "/></g></g></g><g fill="#0075bf" fill-opacity="1"><g transform="translate(252.376188, 619.499926)"><g><path d="M 4.992188 -55.117188 L 4.992188 -17.78125 C 4.992188 -7.800781 9.464844 1.351562 22.046875 1.351562 C 30.46875 1.351562 36.191406 -2.078125 39.726562 -6.96875 L 40.972656 0 L 55.636719 0 L 54.703125 -15.597656 L 54.703125 -55.117188 L 38.269531 -55.117188 L 38.269531 -17.992188 C 36.917969 -16.015625 33.796875 -12.792969 28.597656 -12.792969 C 22.984375 -12.792969 21.320312 -16.535156 21.320312 -20.488281 L 21.320312 -55.117188 Z M 4.992188 -55.117188 "/></g></g></g><g fill="#0075bf" fill-opacity="1"><g transform="translate(312.691605, 619.499926)"><g><path d="M 26.832031 -55.117188 L 26.832031 -70.714844 L 10.398438 -70.714844 L 10.398438 -55.117188 L 1.976562 -55.117188 L 1.976562 -40.765625 L 10.398438 -40.765625 L 10.398438 -19.136719 C 10.398438 -3.953125 18.71875 1.351562 31.09375 1.351562 C 36.085938 1.351562 39 0.519531 39.933594 0 L 39.933594 -13.519531 C 39.308594 -13.207031 36.710938 -12.792969 34.941406 -12.792969 C 29.949219 -12.792969 26.832031 -14.144531 26.832031 -20.902344 L 26.832031 -40.765625 L 40.972656 -40.765625 L 40.972656 -55.117188 Z M 26.832031 -55.117188 "/></g></g></g><g fill="#0075bf" fill-opacity="1"><g transform="translate(357.512203, 619.499926)"><g/></g></g><g fill="#0075bf" fill-opacity="1"><g transform="translate(378.310626, 619.499926)"><g><path d="M 28.804688 -19.96875 L 18.40625 -55.117188 L 0.519531 -55.117188 L 19.863281 -2.910156 L 11.023438 20.800781 L 30.574219 20.800781 L 37.644531 -2.910156 L 57.09375 -55.117188 L 39.207031 -55.117188 Z M 28.804688 -19.96875 "/></g></g></g><g fill="#0075bf" fill-opacity="1"><g transform="translate(435.610273, 619.499926)"><g><path d="M 28.910156 1.351562 C 46.695312 1.351562 54.703125 -9.777344 54.703125 -25.6875 L 54.703125 -29.429688 C 54.703125 -45.34375 46.695312 -56.46875 28.910156 -56.46875 C 11.230469 -56.46875 3.121094 -45.34375 3.121094 -29.429688 L 3.121094 -25.6875 C 3.121094 -9.777344 11.230469 1.351562 28.910156 1.351562 Z M 28.910156 -12.792969 C 22.464844 -12.792969 19.550781 -17.574219 19.550781 -25.6875 L 19.550781 -29.429688 C 19.550781 -37.542969 22.464844 -42.324219 28.910156 -42.324219 C 35.460938 -42.324219 38.269531 -37.542969 38.269531 -29.429688 L 38.269531 -25.6875 C 38.269531 -17.574219 35.460938 -12.792969 28.910156 -12.792969 Z M 28.910156 -12.792969 "/></g></g></g><g fill="#0075bf" fill-opacity="1"><g transform="translate(493.429893, 619.499926)"><g><path d="M 4.992188 -55.117188 L 4.992188 -17.78125 C 4.992188 -7.800781 9.464844 1.351562 22.046875 1.351562 C 30.46875 1.351562 36.191406 -2.078125 39.726562 -6.96875 L 40.972656 0 L 55.636719 0 L 54.703125 -15.597656 L 54.703125 -55.117188 L 38.269531 -55.117188 L 38.269531 -17.992188 C 36.917969 -16.015625 33.796875 -12.792969 28.597656 -12.792969 C 22.984375 -12.792969 21.320312 -16.535156 21.320312 -20.488281 L 21.320312 -55.117188 Z M 4.992188 -55.117188 "/></g></g></g><g fill="#0075bf" fill-opacity="1"><g transform="translate(553.74531, 619.499926)"><g><path d="M 35.148438 -56.46875 C 28.703125 -56.46875 23.710938 -53.246094 20.488281 -48.667969 L 19.34375 -55.117188 L 4.679688 -55.117188 L 5.617188 -39.519531 L 5.617188 0 L 22.046875 0 L 22.046875 -35.773438 C 23.503906 -37.855469 27.246094 -40.558594 33.902344 -40.558594 L 36.710938 -40.558594 L 36.710938 -56.367188 C 36.292969 -56.46875 35.671875 -56.46875 35.148438 -56.46875 Z M 35.148438 -56.46875 "/></g></g></g><g fill="#0075bf" fill-opacity="1"><g transform="translate(189.045002, 725.999917)"><g><path d="M 21.941406 -83.195312 L 5.511719 -83.195312 L 5.511719 -15.597656 L 4.574219 0 L 19.238281 0 L 20.382812 -6.65625 C 23.503906 -1.976562 28.390625 1.351562 36.085938 1.351562 C 51.164062 1.351562 56.574219 -9.777344 56.574219 -25.6875 L 56.574219 -29.429688 C 56.574219 -45.34375 51.164062 -56.46875 36.085938 -56.46875 C 29.535156 -56.46875 25.0625 -54.078125 21.941406 -50.4375 Z M 21.941406 -37.125 C 23.292969 -39.101562 26.414062 -42.324219 31.300781 -42.324219 C 37.644531 -42.324219 40.140625 -37.542969 40.140625 -29.429688 L 40.140625 -25.6875 C 40.140625 -17.574219 37.644531 -12.792969 31.300781 -12.792969 C 26.414062 -12.792969 23.292969 -16.015625 21.941406 -17.992188 Z M 21.941406 -37.125 "/></g></g></g><g fill="#0075bf" fill-opacity="1"><g transform="translate(248.736464, 725.999917)"><g><path d="M 4.992188 -55.117188 L 4.992188 -17.78125 C 4.992188 -7.800781 9.464844 1.351562 22.046875 1.351562 C 30.46875 1.351562 36.191406 -2.078125 39.726562 -6.96875 L 40.972656 0 L 55.636719 0 L 54.703125 -15.597656 L 54.703125 -55.117188 L 38.269531 -55.117188 L 38.269531 -17.992188 C 36.917969 -16.015625 33.796875 -12.792969 28.597656 -12.792969 C 22.984375 -12.792969 21.320312 -16.535156 21.320312 -20.488281 L 21.320312 -55.117188 Z M 4.992188 -55.117188 "/></g></g></g><g fill="#0075bf" fill-opacity="1"><g transform="translate(309.051881, 725.999917)"><g><path d="M 27.453125 -11.128906 C 21.941406 -11.128906 19.96875 -13.832031 19.96875 -17.472656 L 3.640625 -17.472656 L 3.640625 -16.953125 C 3.640625 -6.238281 11.335938 1.351562 27.453125 1.351562 C 43.367188 1.351562 51.375 -5.71875 51.375 -17.160156 L 51.375 -18.09375 C 51.375 -29.742188 42.222656 -32.550781 28.390625 -33.695312 C 22.046875 -34.214844 20.488281 -35.671875 20.488281 -39 C 20.488281 -42.015625 22.878906 -43.988281 27.453125 -43.988281 C 32.445312 -43.988281 34.527344 -41.390625 34.527344 -37.023438 L 50.644531 -37.023438 L 50.644531 -37.542969 C 50.644531 -49.398438 43.679688 -56.46875 27.453125 -56.46875 C 14.351562 -56.46875 4.265625 -51.164062 4.265625 -38.476562 L 4.265625 -37.542969 C 4.265625 -27.144531 11.023438 -23.292969 26.621094 -22.046875 C 33.070312 -21.527344 34.839844 -19.96875 34.839844 -16.535156 C 34.839844 -13.414062 32.757812 -11.128906 27.453125 -11.128906 Z M 27.453125 -11.128906 "/></g></g></g><g fill="#0075bf" fill-opacity="1"><g transform="translate(363.959713, 725.999917)"><g><path d="M 5.617188 0 L 22.046875 0 L 22.046875 -55.117188 L 5.617188 -55.117188 Z M 22.464844 -80.285156 L 5.199219 -80.285156 L 5.199219 -62.917969 L 22.464844 -62.917969 Z M 22.464844 -80.285156 "/></g></g></g><g fill="#0075bf" fill-opacity="1"><g transform="translate(391.621614, 725.999917)"><g><path d="M 55.324219 0 L 55.324219 -37.335938 C 55.324219 -47.316406 50.75 -56.46875 38.269531 -56.46875 C 29.742188 -56.46875 24.023438 -52.933594 20.589844 -48.046875 L 19.34375 -55.117188 L 4.679688 -55.117188 L 5.617188 -39.519531 L 5.617188 0 L 22.046875 0 L 22.046875 -37.125 C 23.292969 -39.101562 26.519531 -42.324219 31.71875 -42.324219 C 37.335938 -42.324219 39 -38.582031 39 -34.628906 L 39 0 Z M 55.324219 0 "/></g></g></g><g fill="#0075bf" fill-opacity="1"><g transform="translate(451.937031, 725.999917)"><g><path d="M 54.703125 -21.632812 L 54.703125 -29.015625 C 54.703125 -44.925781 46.695312 -56.46875 29.222656 -56.46875 C 11.855469 -56.46875 3.121094 -44.925781 3.121094 -29.015625 L 3.121094 -26.101562 C 3.121094 -10.191406 11.542969 1.351562 29.847656 1.351562 C 45.757812 1.351562 54.703125 -6.757812 54.703125 -17.261719 L 54.703125 -17.679688 L 39.207031 -17.679688 C 39.207031 -14.351562 35.671875 -11.128906 29.949219 -11.128906 C 23.816406 -11.128906 20.175781 -13.933594 19.550781 -21.632812 Z M 28.910156 -43.988281 C 34.734375 -43.988281 37.644531 -40.660156 38.167969 -33.488281 L 19.65625 -33.488281 C 20.175781 -40.660156 23.085938 -43.988281 28.910156 -43.988281 Z M 28.910156 -43.988281 "/></g></g></g><g fill="#0075bf" fill-opacity="1"><g transform="translate(509.756629, 725.999917)"><g><path d="M 27.453125 -11.128906 C 21.941406 -11.128906 19.96875 -13.832031 19.96875 -17.472656 L 3.640625 -17.472656 L 3.640625 -16.953125 C 3.640625 -6.238281 11.335938 1.351562 27.453125 1.351562 C 43.367188 1.351562 51.375 -5.71875 51.375 -17.160156 L 51.375 -18.09375 C 51.375 -29.742188 42.222656 -32.550781 28.390625 -33.695312 C 22.046875 -34.214844 20.488281 -35.671875 20.488281 -39 C 20.488281 -42.015625 22.878906 -43.988281 27.453125 -43.988281 C 32.445312 -43.988281 34.527344 -41.390625 34.527344 -37.023438 L 50.644531 -37.023438 L 50.644531 -37.542969 C 50.644531 -49.398438 43.679688 -56.46875 27.453125 -56.46875 C 14.351562 -56.46875 4.265625 -51.164062 4.265625 -38.476562 L 4.265625 -37.542969 C 4.265625 -27.144531 11.023438 -23.292969 26.621094 -22.046875 C 33.070312 -21.527344 34.839844 -19.96875 34.839844 -16.535156 C 34.839844 -13.414062 32.757812 -11.128906 27.453125 -11.128906 Z M 27.453125 -11.128906 "/></g></g></g><g fill="#0075bf" fill-opacity="1"><g transform="translate(564.664461, 725.999917)"><g><path d="M 27.453125 -11.128906 C 21.941406 -11.128906 19.96875 -13.832031 19.96875 -17.472656 L 3.640625 -17.472656 L 3.640625 -16.953125 C 3.640625 -6.238281 11.335938 1.351562 27.453125 1.351562 C 43.367188 1.351562 51.375 -5.71875 51.375 -17.160156 L 51.375 -18.09375 C 51.375 -29.742188 42.222656 -32.550781 28.390625 -33.695312 C 22.046875 -34.214844 20.488281 -35.671875 20.488281 -39 C 20.488281 -42.015625 22.878906 -43.988281 27.453125 -43.988281 C 32.445312 -43.988281 34.527344 -41.390625 34.527344 -37.023438 L 50.644531 -37.023438 L 50.644531 -37.542969 C 50.644531 -49.398438 43.679688 -56.46875 27.453125 -56.46875 C 14.351562 -56.46875 4.265625 -51.164062 4.265625 -38.476562 L 4.265625 -37.542969 C 4.265625 -27.144531 11.023438 -23.292969 26.621094 -22.046875 C 33.070312 -21.527344 34.839844 -19.96875 34.839844 -16.535156 C 34.839844 -13.414062 32.757812 -11.128906 27.453125 -11.128906 Z M 27.453125 -11.128906 "/></g></g></g><g fill="#0075bf" fill-opacity="1"><g transform="translate(189.045002, 832.499908)"><g><path d="M 28.910156 1.351562 C 46.695312 1.351562 54.703125 -9.777344 54.703125 -25.6875 L 54.703125 -29.429688 C 54.703125 -45.34375 46.695312 -56.46875 28.910156 -56.46875 C 11.230469 -56.46875 3.121094 -45.34375 3.121094 -29.429688 L 3.121094 -25.6875 C 3.121094 -9.777344 11.230469 1.351562 28.910156 1.351562 Z M 28.910156 -12.792969 C 22.464844 -12.792969 19.550781 -17.574219 19.550781 -25.6875 L 19.550781 -29.429688 C 19.550781 -37.542969 22.464844 -42.324219 28.910156 -42.324219 C 35.460938 -42.324219 38.269531 -37.542969 38.269531 -29.429688 L 38.269531 -25.6875 C 38.269531 -17.574219 35.460938 -12.792969 28.910156 -12.792969 Z M 28.910156 -12.792969 "/></g></g></g><g fill="#0075bf" fill-opacity="1"><g transform="translate(246.864611, 832.499908)"><g><path d="M 55.324219 0 L 55.324219 -37.335938 C 55.324219 -47.316406 50.75 -56.46875 38.269531 -56.46875 C 29.742188 -56.46875 24.023438 -52.933594 20.589844 -48.046875 L 19.34375 -55.117188 L 4.679688 -55.117188 L 5.617188 -39.519531 L 5.617188 0 L 22.046875 0 L 22.046875 -37.125 C 23.292969 -39.101562 26.519531 -42.324219 31.71875 -42.324219 C 37.335938 -42.324219 39 -38.582031 39 -34.628906 L 39 0 Z M 55.324219 0 "/></g></g></g><g fill="#0075bf" fill-opacity="1"><g transform="translate(307.180028, 832.499908)"><g/></g></g><g fill="#0075bf" fill-opacity="1"><g transform="translate(327.97845, 832.499908)"><g><path d="M 26.832031 -55.117188 L 26.832031 -70.714844 L 10.398438 -70.714844 L 10.398438 -55.117188 L 1.976562 -55.117188 L 1.976562 -40.765625 L 10.398438 -40.765625 L 10.398438 -19.136719 C 10.398438 -3.953125 18.71875 1.351562 31.09375 1.351562 C 36.085938 1.351562 39 0.519531 39.933594 0 L 39.933594 -13.519531 C 39.308594 -13.207031 36.710938 -12.792969 34.941406 -12.792969 C 29.949219 -12.792969 26.832031 -14.144531 26.832031 -20.902344 L 26.832031 -40.765625 L 40.972656 -40.765625 L 40.972656 -55.117188 Z M 26.832031 -55.117188 "/></g></g></g><g fill="#0075bf" fill-opacity="1"><g transform="translate(372.799049, 832.499908)"><g><path d="M 28.910156 1.351562 C 46.695312 1.351562 54.703125 -9.777344 54.703125 -25.6875 L 54.703125 -29.429688 C 54.703125 -45.34375 46.695312 -56.46875 28.910156 -56.46875 C 11.230469 -56.46875 3.121094 -45.34375 3.121094 -29.429688 L 3.121094 -25.6875 C 3.121094 -9.777344 11.230469 1.351562 28.910156 1.351562 Z M 28.910156 -12.792969 C 22.464844 -12.792969 19.550781 -17.574219 19.550781 -25.6875 L 19.550781 -29.429688 C 19.550781 -37.542969 22.464844 -42.324219 28.910156 -42.324219 C 35.460938 -42.324219 38.269531 -37.542969 38.269531 -29.429688 L 38.269531 -25.6875 C 38.269531 -17.574219 35.460938 -12.792969 28.910156 -12.792969 Z M 28.910156 -12.792969 "/></g></g></g><g fill="#0075bf" fill-opacity="1"><g transform="translate(430.618658, 832.499908)"><g><path d="M 36.085938 1.351562 C 51.164062 1.351562 56.574219 -9.777344 56.574219 -25.6875 L 56.574219 -29.429688 C 56.574219 -45.34375 51.164062 -56.46875 36.085938 -56.46875 C 28.390625 -56.46875 23.503906 -53.039062 20.382812 -48.359375 L 19.238281 -55.117188 L 4.574219 -55.117188 L 5.511719 -39.519531 L 5.511719 20.800781 L 21.941406 20.800781 L 21.941406 -4.679688 C 25.0625 -1.039062 29.535156 1.351562 36.085938 1.351562 Z M 31.300781 -42.324219 C 37.644531 -42.324219 40.140625 -37.542969 40.140625 -29.429688 L 40.140625 -25.6875 C 40.140625 -17.574219 37.644531 -12.792969 31.300781 -12.792969 C 26.414062 -12.792969 23.292969 -16.015625 21.941406 -17.992188 L 21.941406 -37.125 C 23.292969 -39.101562 26.414062 -42.324219 31.300781 -42.324219 Z M 31.300781 -42.324219 "/></g></g></g><g fill="#0075bf" fill-opacity="1"><g transform="translate(490.31012, 832.499908)"><g><path d="M 22.464844 -17.367188 L 5.199219 -17.367188 L 5.199219 0 L 22.464844 0 Z M 22.464844 -17.367188 "/></g></g></g></svg>